<?xml version="1.0" standalone="no"?>
<!DOCTYPE svg PUBLIC "-//W3C//DTD SVG 20010904//EN"
 "http://www.w3.org/TR/2001/REC-SVG-20010904/DTD/svg10.dtd">
<svg version="1.0" xmlns="http://www.w3.org/2000/svg"
 width="1024.000000pt" height="1024.000000pt" viewBox="0 0 1024.000000 1024.000000"
 preserveAspectRatio="xMidYMid meet">

<g transform="translate(0.000000,1024.000000) scale(0.100000,-0.100000)"
fill="#fb2c36" stroke="none">
<path d="M1649 9748 c-25 -29 -160 -190 -300 -358 -141 -168 -387 -462 -548
-655 -161 -192 -297 -358 -302 -367 -7 -14 10 -35 88 -109 516 -490 777 -872
892 -1309 39 -149 51 -250 51 -437 0 -223 -33 -432 -112 -703 -16 -58 -104
-325 -194 -595 -262 -787 -318 -1049 -319 -1495 0 -225 12 -331 56 -510 159
-655 565 -1131 1166 -1368 199 -79 388 -127 703 -178 416 -67 463 -75 579
-100 384 -83 664 -208 914 -407 99 -79 233 -209 497 -481 141 -145 295 -286
313 -286 6 0 180 170 386 378 388 389 443 437 627 544 282 162 519 231 1129
329 403 64 492 83 704 150 197 63 326 124 492 232 385 252 668 651 798 1127
84 307 93 704 25 1095 -48 272 -92 427 -284 1000 -181 539 -218 672 -271 960
-29 158 -32 453 -6 590 72 374 225 684 503 1020 60 72 202 224 317 339 184
185 207 210 194 225 -7 9 -47 57 -89 106 -42 50 -199 236 -349 415 -150 179
-307 366 -349 415 -42 50 -149 178 -239 285 -90 107 -167 196 -172 198 -5 2
-93 -37 -196 -86 -395 -189 -647 -291 -1043 -427 -528 -179 -1003 -283 -1610
-352 -195 -22 -861 -25 -1065 -5 -594 59 -1082 163 -1665 354 -400 131 -689
247 -1117 447 -84 39 -154 71 -156 71 -2 0 -24 -24 -48 -52z m198 -319 c1104
-511 2144 -773 3168 -796 1066 -24 2217 243 3319 770 l149 71 40 -44 c40 -45
501 -585 567 -664 85 -102 306 -362 317 -374 7 -7 13 -14 13 -15 0 -1 -39 -42
-88 -92 -300 -309 -504 -582 -643 -860 -167 -337 -233 -665 -209 -1041 20
-313 69 -512 284 -1157 205 -613 252 -780 305 -1077 66 -370 49 -740 -47
-1026 -86 -256 -223 -488 -389 -657 -332 -338 -657 -475 -1383 -582 -434 -63
-622 -104 -823 -176 -244 -89 -493 -229 -676 -384 -92 -77 -259 -246 -371
-375 -90 -103 -261 -283 -264 -278 -2 2 -47 53 -102 113 -55 61 -147 164 -206
230 -431 490 -827 708 -1500 825 -95 16 -256 41 -358 55 -505 71 -809 170
-1085 353 -394 261 -655 718 -716 1252 -17 148 -6 470 20 630 49 291 103 488
266 970 152 450 201 605 245 775 142 552 130 948 -42 1378 -130 325 -333 615
-692 984 l-129 133 64 78 c157 190 868 1022 874 1022 2 0 43 -18 92 -41z"/>
<path d="M1794 9088 c-55 -61 -588 -698 -592 -709 -2 -4 40 -58 92 -120 487
-569 717 -1076 743 -1635 18 -401 -69 -782 -382 -1679 -126 -361 -194 -614
-235 -868 -123 -771 159 -1411 755 -1710 206 -103 441 -166 824 -222 764 -111
1126 -226 1492 -476 178 -122 402 -332 563 -527 37 -45 71 -82 75 -82 4 0 41
42 82 92 95 119 321 347 424 428 307 243 698 413 1135 494 74 14 263 44 420
66 491 70 716 132 945 257 230 126 432 337 553 578 53 106 117 297 138 410 22
121 30 413 14 562 -31 305 -84 509 -310 1183 -179 536 -242 755 -279 970 -66
387 -48 740 54 1070 109 355 307 689 639 1080 58 68 106 127 106 130 0 3 -53
66 -117 141 -65 74 -208 242 -317 372 -109 130 -203 237 -208 237 -5 0 -71
-27 -146 -61 -816 -363 -1702 -600 -2562 -686 -251 -25 -853 -25 -1110 0 -872
85 -1651 289 -2568 671 -100 42 -184 76 -186 76 -2 0 -21 -19 -42 -42z m439
-325 c469 -190 1074 -369 1567 -462 653 -125 1206 -162 1795 -120 187 13 281
24 530 60 671 96 1452 322 2075 598 63 28 119 51 126 51 9 0 405 -455 448
-515 6 -8 -11 -37 -56 -91 -252 -308 -453 -647 -555 -934 -154 -436 -179 -876
-78 -1375 49 -239 104 -422 304 -1015 175 -521 231 -737 267 -1035 29 -241 7
-476 -62 -684 -116 -350 -345 -599 -684 -744 -175 -74 -365 -117 -795 -177
-159 -23 -346 -52 -415 -66 -468 -95 -857 -268 -1189 -531 -53 -42 -162 -143
-244 -226 l-147 -150 -59 64 c-32 35 -70 78 -85 96 -27 32 -197 184 -287 255
-149 119 -437 278 -639 352 -210 76 -472 141 -755 185 -71 11 -220 34 -330 51
-340 54 -549 112 -727 202 -478 243 -718 763 -644 1393 31 261 82 457 247 950
237 708 300 934 355 1275 21 131 30 489 15 621 -60 524 -285 1013 -693 1503
-50 60 -56 72 -44 85 76 89 405 479 419 497 l18 23 57 -26 c31 -14 151 -63
265 -110z"/>
<path d="M3407 8056 c-98 -35 -174 -73 -195 -98 -24 -30 -32 -107 -22 -220 8
-95 15 -123 42 -178 117 -239 418 -296 629 -119 53 45 90 100 115 172 13 38
18 44 37 40 58 -13 207 -60 346 -109 205 -73 372 -113 499 -121 56 -3 102 -9
102 -13 0 -4 -24 -18 -52 -30 -122 -52 -311 -211 -468 -392 -132 -152 -356
-453 -393 -528 -30 -60 -32 -72 -32 -166 0 -96 2 -103 38 -177 45 -92 108
-158 208 -222 41 -27 113 -84 160 -129 47 -45 153 -137 236 -205 144 -117 193
-172 181 -202 -3 -8 -53 -38 -112 -67 -76 -38 -145 -84 -244 -163 -221 -178
-401 -288 -527 -325 -65 -18 -115 -59 -115 -94 0 -11 12 -48 26 -82 42 -101
55 -179 48 -299 -7 -105 -6 -107 17 -122 33 -22 74 -30 105 -23 31 8 54 58 54
118 0 61 24 166 51 224 36 77 110 141 230 201 119 59 614 273 632 273 2 0 2
-120 1 -267 -3 -290 -13 -373 -59 -483 -25 -60 -31 -105 -17 -127 4 -7 25 -19
45 -28 31 -13 62 -14 172 -9 105 6 164 3 262 -11 106 -15 136 -16 172 -5 55
15 111 68 111 104 0 45 -29 62 -114 70 -137 12 -285 76 -306 132 -27 70 -6
164 103 469 l65 180 58 33 c83 47 89 54 129 151 20 47 83 167 139 266 57 99
116 204 130 233 32 62 137 353 191 527 20 66 61 174 90 240 74 167 85 211 85
331 0 57 4 105 8 108 5 3 24 -3 44 -13 100 -54 151 -49 264 24 38 24 95 54
127 66 74 28 111 70 128 144 43 192 -121 369 -326 353 -80 -7 -146 -37 -218
-100 -51 -44 -150 -97 -182 -98 -6 0 -42 32 -80 71 -106 107 -212 175 -357
227 -132 48 -221 64 -478 87 -226 20 -383 47 -501 84 -143 45 -238 67 -452
106 -281 49 -265 44 -369 123 -97 73 -156 95 -268 99 -88 4 -102 1 -193 -31z
m2413 -1465 c0 -5 -15 -63 -34 -128 -19 -65 -46 -192 -60 -283 -31 -194 -38
-217 -105 -375 -28 -66 -61 -154 -72 -195 -11 -41 -22 -81 -25 -89 -2 -7 -39
44 -82 115 -129 213 -168 271 -311 452 -207 265 -196 248 -182 275 39 74 325
176 591 211 192 26 280 31 280 17z"/>
<path d="M4745 3801 c-86 -22 -133 -73 -160 -176 -18 -72 -19 -111 -2 -192 26
-121 94 -178 212 -178 85 1 105 14 105 71 0 40 -2 45 -17 39 -10 -4 -39 -10
-65 -12 -88 -10 -128 43 -128 171 0 145 52 203 154 172 l44 -13 6 46 c7 52 -7
71 -53 71 -14 0 -35 2 -46 4 -11 3 -33 1 -50 -3z"/>
<path d="M2786 3792 c-5 -8 -146 -517 -146 -527 0 -3 25 -5 55 -5 l54 0 11 43
c6 23 12 47 14 52 2 6 34 9 78 7 l75 -3 9 -47 9 -47 58 -3 c31 -2 57 1 57 5
-1 4 -33 125 -73 268 l-73 259 -61 4 c-33 2 -63 -1 -67 -6z m88 -217 c9 -45
19 -91 23 -103 5 -21 2 -22 -52 -22 -55 0 -57 1 -51 23 3 12 16 62 28 110 12
48 24 84 28 80 4 -4 15 -44 24 -88z"/>
<path d="M3036 3792 c-3 -3 -6 -25 -6 -48 l0 -43 58 -3 57 -3 3 -217 2 -218
55 0 55 0 0 220 0 219 56 3 57 3 1 45 1 45 -167 2 c-92 0 -169 -2 -172 -5z"/>
<path d="M3465 3786 c-2 -6 -6 -81 -8 -166 -6 -175 -15 -217 -57 -259 -22 -22
-30 -39 -30 -66 0 -43 17 -52 70 -36 81 24 113 106 125 314 l7 127 39 0 c32 0
40 -4 45 -24 3 -13 4 -112 2 -220 l-3 -197 53 3 c29 2 52 6 52 11 0 4 0 123 0
265 l0 257 -146 1 c-98 1 -147 -3 -149 -10z"/>
<path d="M3866 3793 c-3 -4 -6 -125 -6 -270 l0 -264 143 3 142 3 -1 45 -1 45
-86 3 -87 3 0 59 0 60 75 0 75 0 0 50 0 50 -75 0 -75 0 0 60 0 60 86 0 85 0
-3 47 -3 46 -132 3 c-72 1 -134 0 -137 -3z"/>
<path d="M4200 3748 l0 -48 55 0 55 0 2 -217 3 -218 55 -3 55 -3 -3 221 -3
220 61 0 61 0 -5 48 -4 47 -166 0 -166 0 0 -47z"/>
<path d="M4980 3530 l0 -270 55 0 55 0 0 120 c0 66 3 120 8 120 4 0 34 -54 67
-120 l59 -120 63 0 63 0 -73 140 -72 140 63 120 c34 65 62 124 62 130 0 6 -23
10 -55 10 l-55 0 -61 -121 c-33 -67 -63 -119 -66 -116 -2 3 -6 56 -6 118 l-2
113 -52 3 -53 4 0 -271z"/>
<path d="M5400 3531 l0 -271 60 0 c56 0 61 2 71 27 5 15 24 56 41 92 17 37 43
98 59 136 15 39 31 70 36 70 4 0 6 -73 4 -162 l-3 -163 56 0 56 0 -2 266 -3
265 -58 3 c-47 2 -60 0 -64 -13 -16 -46 -135 -307 -144 -316 -7 -7 -9 46 -7
160 l3 170 -52 3 -53 3 0 -270z"/>
<path d="M6016 3793 c-3 -3 -6 -125 -6 -270 l0 -263 55 0 55 0 0 121 c0 72 4
119 9 117 6 -1 37 -55 70 -118 l59 -115 62 -3 62 -3 -71 136 c-55 107 -68 141
-62 158 5 12 34 70 65 129 30 59 52 109 48 110 -4 2 -31 3 -60 3 l-52 0 -53
-113 c-30 -62 -59 -118 -65 -124 -9 -9 -12 19 -12 114 l0 125 -49 1 c-26 1
-51 -1 -55 -5z"/>
<path d="M6495 3787 c-2 -7 -6 -79 -8 -162 -6 -170 -23 -245 -62 -271 -25 -16
-30 -39 -19 -81 7 -27 30 -29 78 -9 72 30 103 120 108 311 l3 120 43 3 42 3 0
-220 0 -221 55 0 55 0 0 269 0 268 -146 1 c-104 0 -146 -3 -149 -11z"/>
<path d="M6863 3778 c3 -13 33 -97 67 -188 54 -144 60 -169 51 -193 -7 -17
-23 -33 -41 -40 -27 -10 -30 -16 -30 -54 l0 -43 45 0 c58 0 93 17 112 54 16
31 163 463 163 479 0 4 -24 7 -52 5 l-53 -3 -27 -85 c-16 -47 -31 -100 -34
-117 -7 -35 -24 -45 -24 -15 -1 9 -15 62 -33 117 l-33 100 -58 3 c-57 3 -58 2
-53 -20z"/>
<path d="M7284 3791 c-2 -2 -4 -123 -4 -268 l0 -263 98 0 c53 0 113 5 133 10
119 33 147 227 41 292 -25 15 -51 21 -100 22 l-67 1 -3 34 c-2 19 -1 44 2 57
6 23 10 24 97 24 l90 0 -3 47 -3 47 -138 1 c-76 0 -140 -1 -143 -4z m215 -332
c29 -52 -26 -116 -91 -107 -20 3 -23 9 -26 57 -4 77 -1 83 55 79 39 -2 50 -8
62 -29z"/>
<path d="M4531 3087 c-86 -27 -132 -120 -133 -266 0 -151 47 -246 137 -271 93
-26 185 12 224 94 46 94 49 260 6 350 -41 85 -138 124 -234 93z m101 -98 c33
-18 48 -71 48 -166 0 -104 -23 -168 -64 -179 -69 -17 -98 24 -104 145 -5 112
3 156 33 187 26 26 55 30 87 13z"/>
<path d="M3560 2820 l0 -270 55 0 55 0 0 220 0 220 60 0 60 0 0 -220 0 -220
55 0 55 0 0 270 0 270 -170 0 -170 0 0 -270z"/>
<path d="M4010 2820 l0 -270 55 0 55 0 0 95 0 95 48 0 c63 0 130 34 157 80 29
50 27 153 -3 202 -33 52 -80 68 -207 68 l-105 0 0 -270z m202 153 c47 -43 5
-143 -62 -143 l-30 0 0 80 0 80 37 0 c20 0 45 -7 55 -17z"/>
<path d="M4917 2993 c-4 -54 -7 -121 -7 -148 0 -82 -26 -166 -61 -198 -25 -23
-30 -34 -27 -65 3 -36 4 -37 43 -35 22 2 51 11 65 21 57 41 90 168 90 343 l0
79 50 0 51 0 -3 -220 -3 -220 53 0 52 0 0 270 0 270 -148 0 -149 0 -6 -97z"/>
<path d="M5327 3083 c-4 -3 -7 -125 -7 -270 l0 -263 145 0 145 0 0 50 0 50
-90 0 -90 0 0 65 0 65 80 0 80 0 0 50 0 50 -80 0 -80 0 0 55 0 55 84 0 84 0 4
46 c2 25 1 47 -1 50 -7 7 -267 5 -274 -3z"/>
<path d="M5670 3040 l0 -50 55 0 55 0 0 -220 0 -220 55 0 55 0 0 220 0 220 61
0 60 0 -3 48 -3 47 -167 3 -168 2 0 -50z"/>
<path d="M6070 2820 l0 -270 139 0 139 0 4 50 3 49 -90 3 -90 3 0 60 0 60 78
5 c42 3 77 8 77 13 0 4 0 25 0 47 l0 40 -81 0 -81 0 4 53 3 52 88 3 87 3 0 49
0 50 -140 0 -140 0 0 -270z"/>
<path d="M6447 3083 c-4 -3 -7 -125 -7 -270 l0 -263 55 0 55 0 0 94 0 94 58 4
c31 2 70 11 87 19 64 31 99 131 76 219 -24 88 -66 110 -214 110 -57 0 -107 -3
-110 -7z m204 -109 c7 -9 14 -34 14 -56 0 -48 -39 -88 -86 -88 l-29 0 0 80 0
80 44 0 c28 0 48 -6 57 -16z"/>
</g>
</svg>
